<svg version="1.1" id="Layer_1" xmlns="http://www.w3.org/2000/svg" xmlns:xlink="http://www.w3.org/1999/xlink" x="0px" y="0px"
	 width="100%" viewBox="0 0 1398 1583" enable-background="new 0 0 1398 1583" xml:space="preserve">
<path fill="#FFFFFF" opacity="1.000000" stroke="none" 
	d="
M1399.000000,256.000000 
	C1399.000000,292.364258 1399.000000,328.728485 1398.616943,365.243317 
	C1397.822632,366.574677 1397.126465,367.736725 1397.047363,368.939392 
	C1396.614502,375.518097 1396.411743,382.111877 1395.984009,388.691010 
	C1395.035645,403.282715 1394.140991,417.880188 1392.960815,432.453979 
	C1391.812134,446.638123 1390.460938,460.808929 1388.966675,474.961121 
	C1387.460571,489.224213 1385.848511,503.481049 1383.954956,517.696899 
	C1381.833130,533.625244 1379.473633,549.525024 1376.978638,565.399658 
	C1374.112671,583.634277 1371.329956,601.893555 1367.875488,620.020996 
	C1364.286255,638.857117 1360.430420,657.670532 1355.821167,676.278381 
	C1345.207275,719.126953 1334.446167,761.977661 1319.915039,803.700134 
	C1307.960449,838.024780 1295.643677,872.258118 1282.195190,906.017151 
	C1270.751953,934.742249 1257.938232,962.954102 1244.836426,990.974731 
	C1235.439575,1011.071533 1224.724243,1030.562012 1214.299927,1050.164917 
	C1206.681152,1064.491821 1198.939941,1078.778076 1190.600586,1092.691162 
	C1180.091431,1110.223999 1169.254761,1127.582031 1157.949707,1144.610718 
	C1141.897095,1168.790894 1125.894653,1193.046265 1108.745117,1216.444580 
	C1092.131104,1239.112427 1074.362427,1260.956055 1056.595337,1282.749512 
	C1042.843140,1299.618164 1028.444458,1315.968140 1014.074890,1332.321777 
	C1005.469055,1342.115845 996.687683,1351.798462 987.419861,1360.959351 
	C967.955505,1380.199341 948.387146,1399.351318 928.350830,1417.990601 
	C911.650635,1433.526245 894.374939,1448.457153 877.064636,1463.318604 
	C864.578308,1474.038330 851.882812,1484.553345 838.801331,1494.531128 
	C821.694946,1507.578857 804.476501,1520.541138 786.654175,1532.574219 
	C760.796204,1550.032593 734.866943,1567.472656 706.650452,1581.095459 
	C705.554810,1581.624268 704.874084,1583.012329 704.000000,1584.000000 
	C702.611084,1584.000000 701.222229,1584.000000 699.706787,1583.692017 
	C698.818726,1582.826050 698.108154,1582.175659 697.288208,1581.723633 
	C676.872559,1570.470459 655.916199,1560.088989 636.148804,1547.795410 
	C609.206055,1531.039185 582.519409,1513.714478 556.927979,1494.986694 
	C531.991211,1476.738159 508.270142,1456.775635 484.586761,1436.885010 
	C467.214813,1422.295044 450.144348,1407.232178 434.054565,1391.256958 
	C411.018097,1368.384521 388.865723,1344.612793 366.609009,1320.968018 
	C357.406586,1311.191528 348.697052,1300.926270 340.143188,1290.569580 
	C325.831848,1273.242188 311.072449,1256.210693 297.866272,1238.061646 
	C277.840057,1210.539917 258.833588,1182.269287 239.667953,1154.130127 
	C217.913773,1122.190308 198.994202,1088.536133 180.967010,1054.406128 
	C169.861954,1033.381592 159.142639,1012.112793 149.270584,990.487793 
	C137.160568,963.960388 125.772575,937.087769 114.689972,910.110718 
	C97.563461,868.421753 83.015549,825.800537 70.846146,782.405945 
	C63.519150,756.278748 56.338764,730.086792 50.085526,703.688599 
	C43.437122,675.622314 37.717979,647.326965 32.059769,619.038208 
	C28.284803,600.164917 25.037588,581.172974 22.091810,562.150940 
	C19.652081,546.396545 17.940632,530.527466 16.013010,514.696228 
	C13.944259,497.705933 11.868944,480.714539 10.046684,463.696808 
	C8.808703,452.135559 7.848380,440.538910 7.038602,428.938873 
	C5.892937,412.527313 4.753028,396.108368 4.070880,379.673462 
	C3.410788,363.769928 3.337980,347.842163 2.985322,331.925507 
	C2.968666,331.173737 2.739243,330.426697 2.608907,329.677460 
	C2.405938,329.701294 2.202969,329.725128 2.000000,329.748962 
	C2.000000,747.832642 2.000000,1165.916260 2.000004,1584.000000 
	C1.666675,1583.833374 1.056209,1583.684326 1.044469,1583.497437 
	C0.961007,1582.169556 1.000000,1580.834106 1.000000,1579.500977 
	C1.000000,1053.422363 1.000000,527.343872 1.000000,1.000000 
	C466.999969,1.000000 933.000000,1.000000 1398.531372,1.500000 
	C1171.906250,2.000000 945.749695,2.000000 719.303467,2.000000 
	C731.315491,4.123412 743.115845,5.501986 754.540283,8.375185 
	C778.854370,14.490079 802.216248,23.545143 824.738708,34.463188 
	C847.605225,45.548019 870.055664,57.496914 892.609558,69.218987 
	C915.307800,81.016090 937.796326,93.221100 960.591309,104.825867 
	C976.477234,112.913277 992.594299,120.579323 1008.841614,127.916618 
	C1034.120728,139.332748 1059.372803,150.863403 1085.053101,161.322021 
	C1112.627808,172.552155 1140.486084,183.165298 1168.586914,193.001068 
	C1195.358154,202.371384 1222.505981,210.709442 1249.669556,218.899841 
	C1269.182251,224.783279 1288.928467,229.931519 1308.687622,234.946457 
	C1332.072266,240.881546 1355.570068,246.373978 1379.046631,251.940735 
	C1385.647461,253.505920 1392.346191,254.658295 1399.000000,256.000000 
M222.495224,995.996826 
	C229.905273,1010.097473 237.184341,1024.268921 244.761856,1038.279053 
	C252.483170,1052.555054 259.996948,1066.980591 268.495148,1080.790771 
	C283.339294,1104.913452 298.596161,1128.794312 314.210114,1152.426392 
	C323.829163,1166.985107 334.105438,1181.142212 344.675598,1195.031372 
	C357.281830,1211.595947 370.354797,1227.814453 383.531860,1243.932617 
	C394.501099,1257.350098 405.801422,1270.502808 417.169678,1283.586304 
	C424.302551,1291.795410 431.557983,1299.933594 439.238831,1307.623779 
	C456.858826,1325.265625 474.511932,1342.890381 492.648224,1359.995605 
	C507.827118,1374.311646 523.564819,1388.048706 539.331360,1401.723633 
	C550.416931,1411.338379 561.544739,1420.998291 573.398438,1429.613525 
	C596.247864,1446.220947 619.270691,1462.643921 642.901672,1478.104004 
	C659.963440,1489.266479 678.063049,1498.858887 695.883545,1508.822754 
	C697.839600,1509.916382 701.593872,1509.798706 703.525696,1508.621460 
	C723.305969,1496.564575 743.177673,1484.614624 762.426819,1471.742188 
	C779.759094,1460.151245 796.660522,1447.853516 813.172058,1435.115723 
	C829.054443,1422.863525 844.353821,1409.835327 859.612488,1396.800537 
	C874.215576,1384.325684 888.925415,1371.908203 902.708252,1358.557007 
	C922.168579,1339.706055 941.024414,1320.215210 959.742493,1300.619629 
	C971.891357,1287.901245 983.588684,1274.726318 995.025024,1261.359619 
	C1007.531067,1246.742432 1019.883728,1231.961792 1031.617920,1216.724609 
	C1048.717041,1194.520752 1066.001587,1172.387451 1081.739014,1149.226562 
	C1099.356689,1123.298340 1116.041504,1096.668335 1131.833618,1069.586426 
	C1148.177002,1041.559082 1163.600708,1012.945923 1178.237183,983.987793 
	C1191.115356,958.508423 1202.768311,932.380615 1214.177124,906.197083 
	C1223.067749,885.793030 1231.271484,865.051147 1238.834229,844.117554 
	C1247.379395,820.464478 1255.096313,796.502441 1262.735962,772.535278 
	C1268.191284,755.420593 1273.420288,738.202393 1277.861694,720.803589 
	C1284.068726,696.487122 1289.627686,671.999756 1295.120850,647.508606 
	C1299.038940,630.039551 1302.548828,612.473999 1305.941284,594.893738 
	C1308.027588,584.081604 1309.562744,573.162659 1311.320312,562.287537 
	C1312.897827,552.527100 1314.597656,542.782837 1315.958252,532.991760 
	C1317.482666,522.022705 1318.670776,511.007263 1320.034180,500.015564 
	C1321.336792,489.512695 1322.836060,479.031281 1323.949951,468.508789 
	C1324.864868,459.866333 1325.274048,451.171692 1326.026489,442.510498 
	C1327.301514,427.831635 1328.812622,413.171967 1329.954590,398.483246 
	C1330.847778,386.996002 1331.591675,375.484802 1331.939087,363.970276 
	C1332.494385,345.557922 1332.730469,327.134369 1332.854980,308.713928 
	C1332.863281,307.482635 1331.001831,305.482666 1329.660889,305.115692 
	C1316.795410,301.594574 1303.790283,298.577850 1290.948120,294.978058 
	C1257.114868,285.494202 1223.169312,276.356476 1189.588989,266.037720 
	C1143.776245,251.960159 1098.624878,235.906616 1054.485596,217.141312 
	C1030.155884,206.797745 1005.706665,196.708664 981.638733,185.783707 
	C962.481689,177.087921 943.752075,167.435471 924.958130,157.958893 
	C903.412109,147.094604 882.071472,135.823105 860.522217,124.965294 
	C822.097656,105.604599 784.391602,84.538345 742.745911,72.502434 
	C732.092224,69.423439 721.009094,67.182304 709.976868,66.199684 
	C688.564514,64.292534 667.692627,68.352348 647.725586,75.883400 
	C629.153870,82.888161 610.811768,90.602257 592.765991,98.871147 
	C576.834900,106.171043 561.431213,114.626701 545.832275,122.645287 
	C526.517090,132.574219 507.374908,142.849823 487.914307,152.483414 
	C462.275421,165.175430 436.564301,177.747025 410.575073,189.697998 
	C388.592041,199.806732 366.416687,209.593445 343.882935,218.385895 
	C309.568787,231.774948 275.006805,244.564056 240.285553,256.861115 
	C219.898514,264.081482 199.130707,270.323425 178.301132,276.176086 
	C142.901901,286.122437 107.346069,295.518951 71.768303,304.810516 
	C68.386703,305.693695 67.852097,306.923767 67.984772,309.713409 
	C68.361298,317.630493 68.715317,325.549316 68.987320,333.470551 
	C69.367935,344.554718 69.656654,355.642059 70.002846,366.727448 
	C70.323051,376.980316 70.615402,387.234436 71.020935,397.484039 
	C71.248711,403.240753 71.548355,409.000946 72.047188,414.739441 
	C73.294350,429.086517 74.706818,443.419189 75.987328,457.763489 
	C76.730827,466.092194 77.150368,474.454071 78.072037,482.761505 
	C79.184059,492.784790 80.748001,502.757080 81.977844,512.768433 
	C83.091667,521.835449 83.776054,530.960632 85.089066,539.996338 
	C86.835922,552.017578 89.024902,563.974365 90.993927,575.963684 
	C93.356712,590.350647 95.287323,604.822388 98.129814,619.113342 
	C102.058624,638.865723 106.356506,658.557312 111.054955,678.140991 
	C117.428658,704.707397 123.941940,731.253113 131.129944,757.607361 
	C136.865616,778.636719 143.430893,799.453430 150.141022,820.198547 
	C154.625992,834.064331 159.744629,847.743042 165.049408,861.321899 
	C175.189011,887.276794 185.287857,913.259460 196.123413,938.926697 
	C204.171646,957.991333 213.356003,976.576294 222.495224,995.996826 
M476.500000,2.000000 
	C318.409393,2.000000 160.318771,2.000000 2.114415,2.000000 
	C2.114415,87.199333 2.114415,171.834045 2.114415,256.676086 
	C25.644623,251.105377 49.227272,246.070282 72.505112,239.887573 
	C110.971718,229.670700 149.387741,219.205902 187.541840,207.890610 
	C211.955307,200.650345 235.949020,191.945053 259.961823,183.420334 
	C277.007202,177.369095 293.917877,170.878052 310.622467,163.942230 
	C331.937225,155.092239 353.196503,146.050613 374.094177,136.268066 
	C402.616394,122.916344 430.929138,109.093307 459.044891,94.904076 
	C485.313110,81.647263 511.095886,67.431107 537.304016,54.051952 
	C555.050354,44.992527 573.054443,36.416012 591.141052,28.051260 
	C610.990173,18.871393 631.600281,11.693923 653.000671,7.077908 
	C662.692261,4.987460 672.565247,3.737928 682.997681,2.000000 
	C614.101685,2.000000 545.800842,2.000000 476.500000,2.000000 
z"/>
<path fill="#000000" opacity="1.000000" stroke="none" 
	d="
M704.468689,1584.000000 
	C704.874084,1583.012329 705.554810,1581.624268 706.650452,1581.095459 
	C734.866943,1567.472656 760.796204,1550.032593 786.654175,1532.574219 
	C804.476501,1520.541138 821.694946,1507.578857 838.801331,1494.531128 
	C851.882812,1484.553345 864.578308,1474.038330 877.064636,1463.318604 
	C894.374939,1448.457153 911.650635,1433.526245 928.350830,1417.990601 
	C948.387146,1399.351318 967.955505,1380.199341 987.419861,1360.959351 
	C996.687683,1351.798462 1005.469055,1342.115845 1014.074890,1332.321777 
	C1028.444458,1315.968140 1042.843140,1299.618164 1056.595337,1282.749512 
	C1074.362427,1260.956055 1092.131104,1239.112427 1108.745117,1216.444580 
	C1125.894653,1193.046265 1141.897095,1168.790894 1157.949707,1144.610718 
	C1169.254761,1127.582031 1180.091431,1110.223999 1190.600586,1092.691162 
	C1198.939941,1078.778076 1206.681152,1064.491821 1214.299927,1050.164917 
	C1224.724243,1030.562012 1235.439575,1011.071533 1244.836426,990.974731 
	C1257.938232,962.954102 1270.751953,934.742249 1282.195190,906.017151 
	C1295.643677,872.258118 1307.960449,838.024780 1319.915039,803.700134 
	C1334.446167,761.977661 1345.207275,719.126953 1355.821167,676.278381 
	C1360.430420,657.670532 1364.286255,638.857117 1367.875488,620.020996 
	C1371.329956,601.893555 1374.112671,583.634277 1376.978638,565.399658 
	C1379.473633,549.525024 1381.833130,533.625244 1383.954956,517.696899 
	C1385.848511,503.481049 1387.460571,489.224213 1388.966675,474.961121 
	C1390.460938,460.808929 1391.812134,446.638123 1392.960815,432.453979 
	C1394.140991,417.880188 1395.035645,403.282715 1395.984009,388.691010 
	C1396.411743,382.111877 1396.614502,375.518097 1397.047363,368.939392 
	C1397.126465,367.736725 1397.822632,366.574677 1398.616943,365.696960 
	C1399.000000,771.907166 1399.000000,1177.814331 1399.000000,1584.000000 
	C1167.645874,1584.000000 936.291565,1584.000000 704.468689,1584.000000 
z"/>
<path fill="#000000" opacity="1.000000" stroke="none" 
	d="
M2.468657,1584.000000 
	C2.000000,1165.916260 2.000000,747.832642 2.000000,329.748962 
	C2.202969,329.725128 2.405938,329.701294 2.608907,329.677460 
	C2.739243,330.426697 2.968666,331.173737 2.985322,331.925507 
	C3.337980,347.842163 3.410788,363.769928 4.070880,379.673462 
	C4.753028,396.108368 5.892937,412.527313 7.038602,428.938873 
	C7.848380,440.538910 8.808703,452.135559 10.046684,463.696808 
	C11.868944,480.714539 13.944259,497.705933 16.013010,514.696228 
	C17.940632,530.527466 19.652081,546.396545 22.091810,562.150940 
	C25.037588,581.172974 28.284803,600.164917 32.059769,619.038208 
	C37.717979,647.326965 43.437122,675.622314 50.085526,703.688599 
	C56.338764,730.086792 63.519150,756.278748 70.846146,782.405945 
	C83.015549,825.800537 97.563461,868.421753 114.689972,910.110718 
	C125.772575,937.087769 137.160568,963.960388 149.270584,990.487793 
	C159.142639,1012.112793 169.861954,1033.381592 180.967010,1054.406128 
	C198.994202,1088.536133 217.913773,1122.190308 239.667953,1154.130127 
	C258.833588,1182.269287 277.840057,1210.539917 297.866272,1238.061646 
	C311.072449,1256.210693 325.831848,1273.242188 340.143188,1290.569580 
	C348.697052,1300.926270 357.406586,1311.191528 366.609009,1320.968018 
	C388.865723,1344.612793 411.018097,1368.384521 434.054565,1391.256958 
	C450.144348,1407.232178 467.214813,1422.295044 484.586761,1436.885010 
	C508.270142,1456.775635 531.991211,1476.738159 556.927979,1494.986694 
	C582.519409,1513.714478 609.206055,1531.039185 636.148804,1547.795410 
	C655.916199,1560.088989 676.872559,1570.470459 697.288208,1581.723633 
	C698.108154,1582.175659 698.818726,1582.826050 699.290161,1583.692017 
	C466.979095,1584.000000 234.958206,1584.000000 2.468657,1584.000000 
z"/>
<path fill="#000000" opacity="1.000000" stroke="none" 
	d="
M1399.000000,255.531342 
	C1392.346191,254.658295 1385.647461,253.505920 1379.046631,251.940735 
	C1355.570068,246.373978 1332.072266,240.881546 1308.687622,234.946457 
	C1288.928467,229.931519 1269.182251,224.783279 1249.669556,218.899841 
	C1222.505981,210.709442 1195.358154,202.371384 1168.586914,193.001068 
	C1140.486084,183.165298 1112.627808,172.552155 1085.053101,161.322021 
	C1059.372803,150.863403 1034.120728,139.332748 1008.841614,127.916618 
	C992.594299,120.579323 976.477234,112.913277 960.591309,104.825867 
	C937.796326,93.221100 915.307800,81.016090 892.609558,69.218987 
	C870.055664,57.496914 847.605225,45.548019 824.738708,34.463188 
	C802.216248,23.545143 778.854370,14.490079 754.540283,8.375185 
	C743.115845,5.501986 731.315491,4.123412 719.303467,2.000000 
	C945.749695,2.000000 1171.906250,2.000000 1398.531372,2.000000 
	C1399.000000,86.354225 1399.000000,170.708450 1399.000000,255.531342 
z"/>
<path fill="#000000" opacity="1.000000" stroke="none" 
	d="
M222.264771,995.685913 
	C213.356003,976.576294 204.171646,957.991333 196.123413,938.926697 
	C185.287857,913.259460 175.189011,887.276794 165.049408,861.321899 
	C159.744629,847.743042 154.625992,834.064331 150.141022,820.198547 
	C143.430893,799.453430 136.865616,778.636719 131.129944,757.607361 
	C123.941940,731.253113 117.428658,704.707397 111.054955,678.140991 
	C106.356506,658.557312 102.058624,638.865723 98.129814,619.113342 
	C95.287323,604.822388 93.356712,590.350647 90.993927,575.963684 
	C89.024902,563.974365 86.835922,552.017578 85.089066,539.996338 
	C83.776054,530.960632 83.091667,521.835449 81.977844,512.768433 
	C80.748001,502.757080 79.184059,492.784790 78.072037,482.761505 
	C77.150368,474.454071 76.730827,466.092194 75.987328,457.763489 
	C74.706818,443.419189 73.294350,429.086517 72.047188,414.739441 
	C71.548355,409.000946 71.248711,403.240753 71.020935,397.484039 
	C70.615402,387.234436 70.323051,376.980316 70.002846,366.727448 
	C69.656654,355.642059 69.367935,344.554718 68.987320,333.470551 
	C68.715317,325.549316 68.361298,317.630493 67.984772,309.713409 
	C67.852097,306.923767 68.386703,305.693695 71.768303,304.810516 
	C107.346069,295.518951 142.901901,286.122437 178.301132,276.176086 
	C199.130707,270.323425 219.898514,264.081482 240.285553,256.861115 
	C275.006805,244.564056 309.568787,231.774948 343.882935,218.385895 
	C366.416687,209.593445 388.592041,199.806732 410.575073,189.697998 
	C436.564301,177.747025 462.275421,165.175430 487.914307,152.483414 
	C507.374908,142.849823 526.517090,132.574219 545.832275,122.645287 
	C561.431213,114.626701 576.834900,106.171043 592.765991,98.871147 
	C610.811768,90.602257 629.153870,82.888161 647.725586,75.883400 
	C667.692627,68.352348 688.564514,64.292534 709.976868,66.199684 
	C721.009094,67.182304 732.092224,69.423439 742.745911,72.502434 
	C784.391602,84.538345 822.097656,105.604599 860.522217,124.965294 
	C882.071472,135.823105 903.412109,147.094604 924.958130,157.958893 
	C943.752075,167.435471 962.481689,177.087921 981.638733,185.783707 
	C1005.706665,196.708664 1030.155884,206.797745 1054.485596,217.141312 
	C1098.624878,235.906616 1143.776245,251.960159 1189.588989,266.037720 
	C1223.169312,276.356476 1257.114868,285.494202 1290.948120,294.978058 
	C1303.790283,298.577850 1316.795410,301.594574 1329.660889,305.115692 
	C1331.001831,305.482666 1332.863281,307.482635 1332.854980,308.713928 
	C1332.730469,327.134369 1332.494385,345.557922 1331.939087,363.970276 
	C1331.591675,375.484802 1330.847778,386.996002 1329.954590,398.483246 
	C1328.812622,413.171967 1327.301514,427.831635 1326.026489,442.510498 
	C1325.274048,451.171692 1324.864868,459.866333 1323.949951,468.508789 
	C1322.836060,479.031281 1321.336792,489.512695 1320.034180,500.015564 
	C1318.670776,511.007263 1317.482666,522.022705 1315.958252,532.991760 
	C1314.597656,542.782837 1312.897827,552.527100 1311.320312,562.287537 
	C1309.562744,573.162659 1308.027588,584.081604 1305.941284,594.893738 
	C1302.548828,612.473999 1299.038940,630.039551 1295.120850,647.508606 
	C1289.627686,671.999756 1284.068726,696.487122 1277.861694,720.803589 
	C1273.420288,738.202393 1268.191284,755.420593 1262.735962,772.535278 
	C1255.096313,796.502441 1247.379395,820.464478 1238.834229,844.117554 
	C1231.271484,865.051147 1223.067749,885.793030 1214.177124,906.197083 
	C1202.768311,932.380615 1191.115356,958.508423 1178.237183,983.987793 
	C1163.600708,1012.945923 1148.177002,1041.559082 1131.833618,1069.586426 
	C1116.041504,1096.668335 1099.356689,1123.298340 1081.739014,1149.226562 
	C1066.001587,1172.387451 1048.717041,1194.520752 1031.617920,1216.724609 
	C1019.883728,1231.961792 1007.531067,1246.742432 995.025024,1261.359619 
	C983.588684,1274.726318 971.891357,1287.901245 959.742493,1300.619629 
	C941.024414,1320.215210 922.168579,1339.706055 902.708252,1358.557007 
	C888.925415,1371.908203 874.215576,1384.325684 859.612488,1396.800537 
	C844.353821,1409.835327 829.054443,1422.863525 813.172058,1435.115723 
	C796.660522,1447.853516 779.759094,1460.151245 762.426819,1471.742188 
	C743.177673,1484.614624 723.305969,1496.564575 703.525696,1508.621460 
	C701.593872,1509.798706 697.839600,1509.916382 695.883545,1508.822754 
	C678.063049,1498.858887 659.963440,1489.266479 642.901672,1478.104004 
	C619.270691,1462.643921 596.247864,1446.220947 573.398438,1429.613525 
	C561.544739,1420.998291 550.416931,1411.338379 539.331360,1401.723633 
	C523.564819,1388.048706 507.827118,1374.311646 492.648224,1359.995605 
	C474.511932,1342.890381 456.858826,1325.265625 439.238831,1307.623779 
	C431.557983,1299.933594 424.302551,1291.795410 417.169678,1283.586304 
	C405.801422,1270.502808 394.501099,1257.350098 383.531860,1243.932617 
	C370.354797,1227.814453 357.281830,1211.595947 344.675598,1195.031372 
	C334.105438,1181.142212 323.829163,1166.985107 314.210114,1152.426392 
	C298.596161,1128.794312 283.339294,1104.913452 268.495148,1080.790771 
	C259.996948,1066.980591 252.483170,1052.555054 244.761856,1038.279053 
	C237.184341,1024.268921 229.905273,1010.097473 222.264771,995.685913 
z"/>
<path fill="#000000" opacity="1.000000" stroke="none" 
	d="
M477.000000,2.000000 
	C545.800842,2.000000 614.101685,2.000000 682.997681,2.000000 
	C672.565247,3.737928 662.692261,4.987460 653.000671,7.077908 
	C631.600281,11.693923 610.990173,18.871393 591.141052,28.051260 
	C573.054443,36.416012 555.050354,44.992527 537.304016,54.051952 
	C511.095886,67.431107 485.313110,81.647263 459.044891,94.904076 
	C430.929138,109.093307 402.616394,122.916344 374.094177,136.268066 
	C353.196503,146.050613 331.937225,155.092239 310.622467,163.942230 
	C293.917877,170.878052 277.007202,177.369095 259.961823,183.420334 
	C235.949020,191.945053 211.955307,200.650345 187.541840,207.890610 
	C149.387741,219.205902 110.971718,229.670700 72.505112,239.887573 
	C49.227272,246.070282 25.644623,251.105377 2.114415,256.676086 
	C2.114415,171.834045 2.114415,87.199333 2.114415,2.000000 
	C160.318771,2.000000 318.409393,2.000000 477.000000,2.000000 
z"/>
</svg>