<svg version="1.1" id="Layer_1" xmlns="http://www.w3.org/2000/svg" xmlns:xlink="http://www.w3.org/1999/xlink" x="0px" y="0px"
	 width="100%" viewBox="0 0 512 512" enable-background="new 0 0 512 512" xml:space="preserve">
<path fill="#FFFFFF" opacity="1.000000" stroke="none" 
	d="
M1.000001,426.000000 
	C1.000000,341.979095 1.000000,257.958221 1.326773,173.763184 
	C2.106508,172.785019 2.707231,172.029678 2.990698,171.169785 
	C9.145297,152.499847 21.424110,139.495224 39.621613,132.313232 
	C42.433289,131.203552 43.064159,130.073151 43.032562,127.496246 
	C42.940674,120.002205 42.975777,112.506226 43.007008,105.011192 
	C43.036514,97.930191 46.083374,94.166641 53.145084,94.089630 
	C75.294807,93.848076 97.449455,93.909019 119.600777,94.060867 
	C125.608421,94.102051 128.997711,98.051125 128.999420,104.015656 
	C129.001770,112.280426 129.000000,120.545204 129.000000,128.999481 
	C132.211212,128.999481 134.883072,129.218735 137.488388,128.897812 
	C138.622589,128.758102 140.187592,127.738495 140.594833,126.730011 
	C146.826202,111.298485 152.809860,95.766914 159.043671,80.336395 
	C162.340988,72.174538 164.956696,63.665379 171.361740,57.053734 
	C178.578110,49.604610 187.015137,44.709629 197.337097,43.000000 
	C131.891403,43.000000 66.445702,43.000000 1.000000,43.000000 
	C1.000000,29.010277 1.000000,15.020555 1.000000,1.046473 
	C171.666672,1.046473 342.333344,1.046473 513.000000,1.046473 
	C513.000000,14.749525 513.000000,28.406105 512.531372,42.531342 
	C446.879120,43.000000 381.695557,43.000000 316.511993,43.000000 
	C332.359833,45.663589 343.778992,54.285236 350.070129,68.715874 
	C358.189423,87.339806 365.535339,106.308235 372.843109,125.271362 
	C374.049713,128.402451 375.405396,129.057053 378.341278,129.048157 
	C405.315094,128.966385 432.301910,128.544128 459.255249,129.291992 
	C466.837189,129.502365 475.011902,131.979004 481.707672,135.629898 
	C496.078949,143.465881 506.465118,155.311996 511.064209,171.538742 
	C511.239990,172.158890 512.333923,172.518814 513.000000,173.000000 
	C513.000000,257.020905 513.000000,341.041779 512.666443,425.235352 
	C511.964325,425.740173 511.361542,426.013397 511.261017,426.413025 
	C507.497833,441.370239 498.969727,453.217529 486.027649,461.114929 
	C478.396240,465.771698 469.412689,468.212646 462.621216,471.000000 
	C478.104095,471.000000 495.552032,471.000000 513.000000,471.000000 
	C513.000000,484.989716 513.000000,498.979401 513.000000,512.953735 
	C342.333313,512.953735 171.666656,512.953735 1.000000,512.953735 
	C1.000000,499.250702 1.000000,485.594025 1.468657,471.468658 
	C19.111031,471.000000 36.284748,471.000000 53.458466,471.000000 
	C28.043190,465.949188 10.398883,452.365112 2.899532,426.963257 
	C2.761575,426.495972 1.654757,426.314697 1.000001,426.000000 
M109.500000,453.000000 
	C222.657547,453.000000 335.815125,452.970398 448.972595,453.053802 
	C458.469025,453.060822 467.342194,451.292908 475.362152,446.153259 
	C487.258301,438.529572 494.839355,427.826508 494.886597,413.507874 
	C495.130768,339.514557 494.912323,265.519775 495.107544,191.526215 
	C495.132782,181.951340 493.715607,173.099915 488.000793,165.327805 
	C480.262268,154.803467 470.401764,147.248886 456.836823,147.096924 
	C428.342682,146.777725 399.842468,147.012070 371.344727,146.989777 
	C365.665894,146.985321 361.121399,145.586609 358.737640,139.399979 
	C351.368164,120.274101 343.309937,101.411140 336.081818,82.234001 
	C330.209167,66.653122 321.841217,61.319431 310.256012,61.168331 
	C274.764893,60.705433 239.261108,60.750805 203.768234,61.141685 
	C192.105301,61.270130 184.545654,66.709076 180.369965,76.462204 
	C171.924530,96.188194 164.139038,116.204124 156.433289,136.235855 
	C153.247284,144.518143 152.360733,147.027451 140.180557,147.010666 
	C114.682632,146.975510 89.182373,147.194824 63.687828,146.899521 
	C54.131741,146.788849 45.322243,148.213425 37.458630,153.944443 
	C26.852949,161.673889 19.164721,171.520569 19.120659,185.001724 
	C18.871199,261.328156 18.999889,337.655823 19.000870,413.983093 
	C19.000887,415.316254 18.755388,416.711700 19.059429,417.973267 
	C24.203207,439.316925 39.879448,452.289764 62.006092,452.915497 
	C77.492477,453.353455 93.001236,453.000000 109.500000,453.000000 
M108.321877,128.999725 
	C109.214066,128.222183 110.835823,127.482269 110.878174,126.660904 
	C111.124092,121.891716 110.998451,117.103363 110.998451,112.230270 
	C94.138054,112.230270 77.734657,112.230270 61.233536,112.230270 
	C61.233536,117.867844 61.233536,123.272575 61.233536,129.000000 
	C76.759193,129.000000 92.053627,129.000000 108.321877,128.999725 
z"/>
<path fill="#000000" opacity="1.000000" stroke="none" 
	d="
M513.000000,172.531342 
	C512.333923,172.518814 511.239990,172.158890 511.064209,171.538742 
	C506.465118,155.311996 496.078949,143.465881 481.707672,135.629898 
	C475.011902,131.979004 466.837189,129.502365 459.255249,129.291992 
	C432.301910,128.544128 405.315094,128.966385 378.341278,129.048157 
	C375.405396,129.057053 374.049713,128.402451 372.843109,125.271362 
	C365.535339,106.308235 358.189423,87.339806 350.070129,68.715874 
	C343.778992,54.285236 332.359833,45.663589 316.511993,43.000000 
	C381.695557,43.000000 446.879120,43.000000 512.531372,43.000000 
	C513.000000,86.020897 513.000000,129.041794 513.000000,172.531342 
z"/>
<path fill="#000000" opacity="1.000000" stroke="none" 
	d="
M1.000000,43.468658 
	C66.445702,43.000000 131.891403,43.000000 197.337097,43.000000 
	C187.015137,44.709629 178.578110,49.604610 171.361740,57.053734 
	C164.956696,63.665379 162.340988,72.174538 159.043671,80.336395 
	C152.809860,95.766914 146.826202,111.298485 140.594833,126.730011 
	C140.187592,127.738495 138.622589,128.758102 137.488388,128.897812 
	C134.883072,129.218735 132.211212,128.999481 129.000000,128.999481 
	C129.000000,120.545204 129.001770,112.280426 128.999420,104.015656 
	C128.997711,98.051125 125.608421,94.102051 119.600777,94.060867 
	C97.449455,93.909019 75.294807,93.848076 53.145084,94.089630 
	C46.083374,94.166641 43.036514,97.930191 43.007008,105.011192 
	C42.975777,112.506226 42.940674,120.002205 43.032562,127.496246 
	C43.064159,130.073151 42.433289,131.203552 39.621613,132.313232 
	C21.424110,139.495224 9.145297,152.499847 2.990698,171.169785 
	C2.707231,172.029678 2.106508,172.785019 1.326773,173.294525 
	C1.000000,129.979111 1.000000,86.958214 1.000000,43.468658 
z"/>
<path fill="#000000" opacity="1.000000" stroke="none" 
	d="
M1.000001,426.468658 
	C1.654757,426.314697 2.761575,426.495972 2.899532,426.963257 
	C10.398883,452.365112 28.043190,465.949188 53.458466,471.000000 
	C36.284748,471.000000 19.111031,471.000000 1.468657,471.000000 
	C1.000000,456.312439 1.000000,441.624878 1.000001,426.468658 
z"/>
<path fill="#000000" opacity="1.000000" stroke="none" 
	d="
M513.000000,470.531342 
	C495.552032,471.000000 478.104095,471.000000 462.621216,471.000000 
	C469.412689,468.212646 478.396240,465.771698 486.027649,461.114929 
	C498.969727,453.217529 507.497833,441.370239 511.261017,426.413025 
	C511.361542,426.013397 511.964325,425.740173 512.666443,425.703979 
	C513.000000,440.687561 513.000000,455.375122 513.000000,470.531342 
z"/>
<path fill="#000000" opacity="1.000000" stroke="none" 
	d="
M109.000000,453.000000 
	C93.001236,453.000000 77.492477,453.353455 62.006092,452.915497 
	C39.879448,452.289764 24.203207,439.316925 19.059429,417.973267 
	C18.755388,416.711700 19.000887,415.316254 19.000870,413.983093 
	C18.999889,337.655823 18.871199,261.328156 19.120659,185.001724 
	C19.164721,171.520569 26.852949,161.673889 37.458630,153.944443 
	C45.322243,148.213425 54.131741,146.788849 63.687828,146.899521 
	C89.182373,147.194824 114.682632,146.975510 140.180557,147.010666 
	C152.360733,147.027451 153.247284,144.518143 156.433289,136.235855 
	C164.139038,116.204124 171.924530,96.188194 180.369965,76.462204 
	C184.545654,66.709076 192.105301,61.270130 203.768234,61.141685 
	C239.261108,60.750805 274.764893,60.705433 310.256012,61.168331 
	C321.841217,61.319431 330.209167,66.653122 336.081818,82.234001 
	C343.309937,101.411140 351.368164,120.274101 358.737640,139.399979 
	C361.121399,145.586609 365.665894,146.985321 371.344727,146.989777 
	C399.842468,147.012070 428.342682,146.777725 456.836823,147.096924 
	C470.401764,147.248886 480.262268,154.803467 488.000793,165.327805 
	C493.715607,173.099915 495.132782,181.951340 495.107544,191.526215 
	C494.912323,265.519775 495.130768,339.514557 494.886597,413.507874 
	C494.839355,427.826508 487.258301,438.529572 475.362152,446.153259 
	C467.342194,451.292908 458.469025,453.060822 448.972595,453.053802 
	C335.815125,452.970398 222.657547,453.000000 109.000000,453.000000 
M153.015015,168.476608 
	C145.642548,176.852844 137.569931,184.719849 131.034897,193.705170 
	C114.458008,216.497452 105.417931,242.372940 103.179405,270.382385 
	C102.394173,280.207672 103.502174,290.206146 104.033920,300.110046 
	C105.000359,318.109924 110.716354,334.913483 118.546425,350.865967 
	C129.259521,372.692200 144.652084,390.817383 164.056015,405.653046 
	C190.243301,425.675110 220.092865,435.131622 252.566681,436.833130 
	C261.007111,437.275391 269.565155,435.776764 278.051208,434.978516 
	C294.265808,433.453308 309.515961,428.434052 324.072754,421.386658 
	C343.967743,411.754852 361.046600,398.497894 375.227051,381.393616 
	C387.526764,366.557922 396.951294,350.184631 402.804840,331.901642 
	C404.277832,327.300873 405.951935,325.917236 410.750671,325.830933 
	C421.664703,325.634644 431.852966,322.318207 439.819031,314.559052 
	C450.645142,304.014160 455.825104,291.313324 453.038910,275.896729 
	C450.572815,262.251099 444.134033,251.733963 431.641968,244.828659 
	C424.238831,240.736343 416.331726,240.000931 408.361053,239.103073 
	C405.700653,238.803406 404.456573,238.308594 403.642365,235.462814 
	C402.283661,230.713974 400.041138,226.221542 398.229340,221.598160 
	C391.523926,204.487137 381.302429,189.627289 368.777832,176.348206 
	C354.917206,161.652557 338.530151,150.421753 320.178925,142.006302 
	C304.650635,134.885422 288.308838,130.230637 271.376862,129.231903 
	C254.193359,128.218307 236.935989,128.503677 219.930313,132.895096 
	C194.936462,139.349304 172.786087,150.841522 153.015015,168.476608 
M471.000000,203.240784 
	C470.999969,192.922653 471.127716,182.602310 470.950378,172.287231 
	C470.849701,166.430969 467.342590,162.735245 461.740875,162.859680 
	C444.441589,163.244019 427.128296,162.988373 409.820465,163.007446 
	C404.938385,163.012817 402.015839,165.965454 402.006775,170.881424 
	C401.985626,182.364471 402.423248,193.869431 401.831970,205.321991 
	C401.507629,211.603973 406.340332,215.053955 411.871704,215.027267 
	C427.847809,214.950165 443.824554,215.014328 459.800995,214.993774 
	C467.473846,214.983902 470.566406,211.962753 471.000000,203.240784 
M232.500626,104.000000 
	C254.926636,104.000000 277.352661,104.000000 299.713654,104.000000 
	C299.713654,97.689919 299.713654,91.952087 299.713654,86.283432 
	C271.025513,86.283432 242.624588,86.283432 214.286407,86.283432 
	C214.286407,92.309044 214.286407,98.047424 214.286407,104.000000 
	C220.214523,104.000000 225.857880,104.000000 232.500626,104.000000 
M96.882751,211.645660 
	C103.291176,205.680969 106.028191,198.582397 102.589928,190.168228 
	C100.237740,184.411880 93.984795,179.125778 84.497688,179.942139 
	C72.716255,180.955917 65.984787,192.163513 69.874344,203.210999 
	C73.313072,212.977997 84.335800,218.890930 96.882751,211.645660 
z"/>
<path fill="#000000" opacity="1.000000" stroke="none" 
	d="
M107.834969,128.999863 
	C92.053627,129.000000 76.759193,129.000000 61.233536,129.000000 
	C61.233536,123.272575 61.233536,117.867844 61.233536,112.230270 
	C77.734657,112.230270 94.138054,112.230270 110.998451,112.230270 
	C110.998451,117.103363 111.124092,121.891716 110.878174,126.660904 
	C110.835823,127.482269 109.214066,128.222183 107.834969,128.999863 
z"/>
<path fill="#FFFFFF" opacity="1.000000" stroke="none" 
	d="
M153.272003,168.229279 
	C172.786087,150.841522 194.936462,139.349304 219.930313,132.895096 
	C236.935989,128.503677 254.193359,128.218307 271.376862,129.231903 
	C288.308838,130.230637 304.650635,134.885422 320.178925,142.006302 
	C338.530151,150.421753 354.917206,161.652557 368.777832,176.348206 
	C381.302429,189.627289 391.523926,204.487137 398.229340,221.598160 
	C400.041138,226.221542 402.283661,230.713974 403.642365,235.462814 
	C404.456573,238.308594 405.700653,238.803406 408.361053,239.103073 
	C416.331726,240.000931 424.238831,240.736343 431.641968,244.828659 
	C444.134033,251.733963 450.572815,262.251099 453.038910,275.896729 
	C455.825104,291.313324 450.645142,304.014160 439.819031,314.559052 
	C431.852966,322.318207 421.664703,325.634644 410.750671,325.830933 
	C405.951935,325.917236 404.277832,327.300873 402.804840,331.901642 
	C396.951294,350.184631 387.526764,366.557922 375.227051,381.393616 
	C361.046600,398.497894 343.967743,411.754852 324.072754,421.386658 
	C309.515961,428.434052 294.265808,433.453308 278.051208,434.978516 
	C269.565155,435.776764 261.007111,437.275391 252.566681,436.833130 
	C220.092865,435.131622 190.243301,425.675110 164.056015,405.653046 
	C144.652084,390.817383 129.259521,372.692200 118.546425,350.865967 
	C110.716354,334.913483 105.000359,318.109924 104.033920,300.110046 
	C103.502174,290.206146 102.394173,280.207672 103.179405,270.382385 
	C105.417931,242.372940 114.458008,216.497452 131.034897,193.705170 
	C137.569931,184.719849 145.642548,176.852844 153.272003,168.229279 
M352.499573,379.000122 
	C359.588776,369.909576 367.387451,361.277252 373.617035,351.631531 
	C385.949432,332.536407 391.794373,311.128876 392.898041,288.512054 
	C393.225800,281.795563 392.404419,275.015137 391.985291,268.271729 
	C391.125854,254.443436 387.440918,241.229446 381.848114,228.698410 
	C372.068878,206.787354 357.757446,188.330002 338.406830,173.826767 
	C318.186646,158.671768 295.501831,149.521271 270.527649,147.259750 
	C256.030914,145.946991 241.320618,146.436905 226.832916,149.900024 
	C203.749329,155.417892 183.467270,166.107559 165.852982,181.777466 
	C155.807693,190.713898 147.569565,201.233124 140.540649,212.806244 
	C123.841431,240.301605 118.065674,270.083252 122.204216,301.633179 
	C124.294136,317.565582 129.623230,332.741150 137.412674,347.036255 
	C147.197754,364.993744 160.312912,379.872864 176.592957,392.092468 
	C199.400345,409.211395 225.428497,417.519928 253.570404,418.758148 
	C264.075470,419.220367 274.933990,417.990997 285.225891,415.706451 
	C310.790588,410.031738 333.264923,398.069885 352.499573,379.000122 
M422.872406,304.656921 
	C423.343506,304.189880 423.745453,303.610291 424.295776,303.272247 
	C439.130646,294.159210 439.709869,272.165405 424.721039,262.449921 
	C420.265564,259.561951 414.717407,258.359711 410.001526,256.514771 
	C410.001526,274.267822 410.001526,291.094818 410.001526,308.360565 
	C413.879272,307.284302 418.019409,306.135193 422.872406,304.656921 
z"/>
<path fill="#FFFFFF" opacity="1.000000" stroke="none" 
	d="
M471.000000,203.704330 
	C470.566406,211.962753 467.473846,214.983902 459.800995,214.993774 
	C443.824554,215.014328 427.847809,214.950165 411.871704,215.027267 
	C406.340332,215.053955 401.507629,211.603973 401.831970,205.321991 
	C402.423248,193.869431 401.985626,182.364471 402.006775,170.881424 
	C402.015839,165.965454 404.938385,163.012817 409.820465,163.007446 
	C427.128296,162.988373 444.441589,163.244019 461.740875,162.859680 
	C467.342590,162.735245 470.849701,166.430969 470.950378,172.287231 
	C471.127716,182.602310 470.999969,192.922653 471.000000,203.704330 
M453.000000,189.481323 
	C453.000000,186.714508 453.000000,183.947693 453.000000,181.295807 
	C441.669769,181.295807 430.931305,181.295807 420.299011,181.295807 
	C420.299011,186.668060 420.299011,191.740219 420.299011,196.699631 
	C431.338715,196.699631 442.077057,196.699631 453.000000,196.699631 
	C453.000000,194.419373 453.000000,192.438141 453.000000,189.481323 
z"/>
<path fill="#FFFFFF" opacity="1.000000" stroke="none" 
	d="
M232.000931,104.000000 
	C225.857880,104.000000 220.214523,104.000000 214.286407,104.000000 
	C214.286407,98.047424 214.286407,92.309044 214.286407,86.283432 
	C242.624588,86.283432 271.025513,86.283432 299.713654,86.283432 
	C299.713654,91.952087 299.713654,97.689919 299.713654,104.000000 
	C277.352661,104.000000 254.926636,104.000000 232.000931,104.000000 
z"/>
<path fill="#FFFFFF" opacity="1.000000" stroke="none" 
	d="
M96.538498,211.813705 
	C84.335800,218.890930 73.313072,212.977997 69.874344,203.210999 
	C65.984787,192.163513 72.716255,180.955917 84.497688,179.942139 
	C93.984795,179.125778 100.237740,184.411880 102.589928,190.168228 
	C106.028191,198.582397 103.291176,205.680969 96.538498,211.813705 
z"/>
<path fill="#000000" opacity="1.000000" stroke="none" 
	d="
M352.248871,379.251373 
	C333.264923,398.069885 310.790588,410.031738 285.225891,415.706451 
	C274.933990,417.990997 264.075470,419.220367 253.570404,418.758148 
	C225.428497,417.519928 199.400345,409.211395 176.592957,392.092468 
	C160.312912,379.872864 147.197754,364.993744 137.412674,347.036255 
	C129.623230,332.741150 124.294136,317.565582 122.204216,301.633179 
	C118.065674,270.083252 123.841431,240.301605 140.540649,212.806244 
	C147.569565,201.233124 155.807693,190.713898 165.852982,181.777466 
	C183.467270,166.107559 203.749329,155.417892 226.832916,149.900024 
	C241.320618,146.436905 256.030914,145.946991 270.527649,147.259750 
	C295.501831,149.521271 318.186646,158.671768 338.406830,173.826767 
	C357.757446,188.330002 372.068878,206.787354 381.848114,228.698410 
	C387.440918,241.229446 391.125854,254.443436 391.985291,268.271729 
	C392.404419,275.015137 393.225800,281.795563 392.898041,288.512054 
	C391.794373,311.128876 385.949432,332.536407 373.617035,351.631531 
	C367.387451,361.277252 359.588776,369.909576 352.248871,379.251373 
M338.561462,206.047379 
	C333.959564,202.116638 329.533813,197.954620 324.726440,194.293716 
	C298.864990,174.599808 269.838318,167.450378 237.799515,173.002991 
	C209.134979,177.970840 185.942749,192.002899 168.251572,215.206833 
	C147.418259,242.531998 141.854828,273.300201 148.128937,306.400726 
	C152.237518,328.076569 163.028702,346.566742 178.660110,362.068909 
	C188.498245,371.825745 199.842560,379.496796 212.654739,385.005249 
	C232.654785,393.604034 253.522324,396.075958 274.815369,392.796509 
	C288.951904,390.619293 302.385223,385.710022 314.770874,378.087128 
	C331.937683,367.521545 345.342316,353.524445 354.997681,335.900238 
	C364.749756,318.099640 368.556335,299.026550 368.138641,278.756287 
	C367.811401,262.873566 364.284576,247.833405 357.153625,233.953613 
	C352.187347,224.287186 345.105682,215.707535 338.561462,206.047379 
z"/>
<path fill="#000000" opacity="1.000000" stroke="none" 
	d="
M422.515991,304.821472 
	C418.019409,306.135193 413.879272,307.284302 410.001526,308.360565 
	C410.001526,291.094818 410.001526,274.267822 410.001526,256.514771 
	C414.717407,258.359711 420.265564,259.561951 424.721039,262.449921 
	C439.709869,272.165405 439.130646,294.159210 424.295776,303.272247 
	C423.745453,303.610291 423.343506,304.189880 422.515991,304.821472 
z"/>
<path fill="#000000" opacity="1.000000" stroke="none" 
	d="
M453.000000,189.969116 
	C453.000000,192.438141 453.000000,194.419373 453.000000,196.699631 
	C442.077057,196.699631 431.338715,196.699631 420.299011,196.699631 
	C420.299011,191.740219 420.299011,186.668060 420.299011,181.295807 
	C430.931305,181.295807 441.669769,181.295807 453.000000,181.295807 
	C453.000000,183.947693 453.000000,186.714508 453.000000,189.969116 
z"/>
<path fill="#FFFFFF" opacity="1.000000" stroke="none" 
	d="
M338.765259,206.344894 
	C345.105682,215.707535 352.187347,224.287186 357.153625,233.953613 
	C364.284576,247.833405 367.811401,262.873566 368.138641,278.756287 
	C368.556335,299.026550 364.749756,318.099640 354.997681,335.900238 
	C345.342316,353.524445 331.937683,367.521545 314.770874,378.087128 
	C302.385223,385.710022 288.951904,390.619293 274.815369,392.796509 
	C253.522324,396.075958 232.654785,393.604034 212.654739,385.005249 
	C199.842560,379.496796 188.498245,371.825745 178.660110,362.068909 
	C163.028702,346.566742 152.237518,328.076569 148.128937,306.400726 
	C141.854828,273.300201 147.418259,242.531998 168.251572,215.206833 
	C185.942749,192.002899 209.134979,177.970840 237.799515,173.002991 
	C269.838318,167.450378 298.864990,174.599808 324.726440,194.293716 
	C329.533813,197.954620 333.959564,202.116638 338.765259,206.344894 
M266.707428,375.045197 
	C269.283844,374.699738 271.876801,374.447479 274.434143,373.994263 
	C298.036346,369.811310 317.117767,357.713776 331.352814,338.892395 
	C348.724091,315.924438 354.129395,289.673157 347.898193,261.505920 
	C343.109375,239.858871 331.553345,221.818069 313.890106,208.697113 
	C292.142548,192.542160 267.623840,185.496506 240.265366,190.945328 
	C218.559372,195.268372 200.434540,205.361710 186.086136,222.348831 
	C167.807251,243.989288 161.027863,268.744568 164.972351,296.673004 
	C167.756485,316.385803 176.414017,333.208008 190.051178,347.433167 
	C199.326340,357.108246 210.229828,364.661499 222.883865,369.405975 
	C236.774124,374.613892 251.059158,377.231201 266.707428,375.045197 
z"/>
<path fill="#000000" opacity="1.000000" stroke="none" 
	d="
M266.325928,375.307587 
	C251.059158,377.231201 236.774124,374.613892 222.883865,369.405975 
	C210.229828,364.661499 199.326340,357.108246 190.051178,347.433167 
	C176.414017,333.208008 167.756485,316.385803 164.972351,296.673004 
	C161.027863,268.744568 167.807251,243.989288 186.086136,222.348831 
	C200.434540,205.361710 218.559372,195.268372 240.265366,190.945328 
	C267.623840,185.496506 292.142548,192.542160 313.890106,208.697113 
	C331.553345,221.818069 343.109375,239.858871 347.898193,261.505920 
	C354.129395,289.673157 348.724091,315.924438 331.352814,338.892395 
	C317.117767,357.713776 298.036346,369.811310 274.434143,373.994263 
	C271.876801,374.447479 269.283844,374.699738 266.325928,375.307587 
M230.560501,237.961136 
	C212.054184,248.971893 200.783035,272.213226 206.920547,295.386749 
	C209.775818,306.167511 215.418793,314.950531 223.702957,322.181732 
	C235.669174,332.626953 249.960098,335.683807 265.169647,333.763824 
	C278.215759,332.116943 288.908813,325.230560 297.257080,315.150757 
	C305.397095,305.322388 309.320404,293.628571 308.825165,281.015015 
	C308.397644,270.125732 305.004669,259.897980 298.044434,251.057159 
	C288.340240,238.730972 275.708038,232.183105 260.175690,231.003983 
	C249.841064,230.219452 240.270981,232.961639 230.560501,237.961136 
z"/>
<path fill="#FFFFFF" opacity="1.000000" stroke="none" 
	d="
M230.819916,237.681061 
	C240.270981,232.961639 249.841064,230.219452 260.175690,231.003983 
	C275.708038,232.183105 288.340240,238.730972 298.044434,251.057159 
	C305.004669,259.897980 308.397644,270.125732 308.825165,281.015015 
	C309.320404,293.628571 305.397095,305.322388 297.257080,315.150757 
	C288.908813,325.230560 278.215759,332.116943 265.169647,333.763824 
	C249.960098,335.683807 235.669174,332.626953 223.702957,322.181732 
	C215.418793,314.950531 209.775818,306.167511 206.920547,295.386749 
	C200.783035,272.213226 212.054184,248.971893 230.819916,237.681061 
M290.500885,280.001465 
	C290.021484,277.818665 289.714722,275.580475 289.035553,273.461731 
	C283.158630,255.127747 267.012421,245.537521 248.540344,250.101700 
	C232.030075,254.181168 223.120621,269.353760 223.237427,282.954895 
	C223.322922,292.909576 227.865036,301.602264 235.749832,308.333466 
	C243.915405,315.304382 253.612183,317.968018 263.501801,315.550751 
	C281.435394,311.167328 290.148499,297.889008 290.500885,280.001465 
z"/>
<path fill="#000000" opacity="1.000000" stroke="none" 
	d="
M290.732025,280.375732 
	C290.148499,297.889008 281.435394,311.167328 263.501801,315.550751 
	C253.612183,317.968018 243.915405,315.304382 235.749832,308.333466 
	C227.865036,301.602264 223.322922,292.909576 223.237427,282.954895 
	C223.120621,269.353760 232.030075,254.181168 248.540344,250.101700 
	C267.012421,245.537521 283.158630,255.127747 289.035553,273.461731 
	C289.714722,275.580475 290.021484,277.818665 290.732025,280.375732 
z"/>
</svg>