<svg version="1.1" id="Layer_1" xmlns="http://www.w3.org/2000/svg" xmlns:xlink="http://www.w3.org/1999/xlink" x="0px" y="0px"
	 width="100%" viewBox="0 0 512 512" enable-background="new 0 0 512 512" xml:space="preserve">
<path fill="#000000" opacity="1.000000" stroke="none" 
	d="
M224.000000,513.000000 
	C149.724564,513.000000 75.449142,513.000000 1.000000,513.000000 
	C1.000000,400.312500 1.000000,287.624908 1.293259,174.180847 
	C6.352931,180.626602 13.357869,181.534042 21.288387,181.110474 
	C30.257681,180.631393 39.274265,181.100998 48.265568,180.921555 
	C50.254181,180.881866 52.396397,180.172134 54.169270,179.216782 
	C60.097549,176.022156 61.393753,170.683060 61.079224,164.335861 
	C60.709000,156.864670 55.296322,151.025238 47.944984,151.007278 
	C36.618164,150.979630 25.288860,150.879654 13.966331,151.101929 
	C11.712062,151.146194 9.324168,152.210938 7.285681,153.329575 
	C5.018779,154.573547 3.081042,156.417343 0.999999,158.000000 
	C1.000000,105.725868 1.000000,53.451744 1.000000,1.000000 
	C77.354134,1.000000 153.708405,1.000000 230.830719,1.352998 
	C230.604156,2.137140 229.646347,2.799320 228.609375,2.964425 
	C215.204544,5.098724 202.295547,9.008134 189.977386,14.586718 
	C168.463226,24.329943 149.524124,37.627628 133.810974,55.519703 
	C125.196808,65.328400 117.648460,75.754829 111.381729,87.157135 
	C100.609116,106.757881 93.878273,127.806999 92.250694,149.974960 
	C90.773735,170.091339 91.542915,190.314072 97.430145,209.997574 
	C103.047363,228.778320 110.849022,246.354797 122.546600,262.266022 
	C130.548447,273.150238 138.403107,284.306641 144.824768,296.153809 
	C157.436539,319.420837 161.397476,344.998688 161.952103,371.154724 
	C162.227554,384.144196 162.318878,397.154114 161.919693,410.137146 
	C161.415100,426.548370 173.294235,443.190247 188.177155,449.425110 
	C191.661804,450.884918 192.022903,452.469482 192.054047,455.486237 
	C192.132462,463.079926 191.437897,470.884613 192.937775,478.219330 
	C196.297958,494.651337 206.551712,505.601074 222.537521,511.058777 
	C223.171982,511.275391 223.519043,512.333801 224.000000,513.000000 
M63.906235,79.382301 
	C57.719948,77.175446 51.579643,74.826485 45.333252,72.805397 
	C40.061081,71.099548 34.661873,68.552895 29.325985,68.570152 
	C21.568798,68.595230 15.625836,74.972862 15.036220,81.952934 
	C14.376813,89.759209 17.656000,95.954742 26.410347,99.032738 
	C35.010490,102.056519 43.489204,105.423843 52.049953,108.561989 
	C61.958931,112.194359 69.959435,107.585884 73.410805,99.062866 
	C76.310555,91.902016 72.311440,83.442421 63.906235,79.382301 
M47.033089,258.454681 
	C53.616978,255.978729 60.355370,253.841003 66.738358,250.925232 
	C72.364235,248.355316 75.023674,241.512451 73.993851,234.600403 
	C73.274605,229.772873 67.623405,224.555786 62.770374,222.878983 
	C57.390228,221.020065 53.013451,223.320679 48.418144,225.028351 
	C39.727020,228.258041 30.924232,231.265533 22.483564,235.066483 
	C15.549929,238.188797 13.321427,245.894867 16.000317,253.875977 
	C17.974892,259.758698 25.938765,264.679321 32.070236,263.010376 
	C36.858646,261.707031 41.622799,260.314575 47.033089,258.454681 
z"/>
<path fill="#000000" opacity="1.000000" stroke="none" 
	d="
M513.000000,174.000000 
	C513.000000,286.911835 513.000000,399.823700 513.000000,513.000000 
	C439.312653,513.000000 365.624969,513.000000 291.177246,512.684326 
	C291.609406,511.586792 292.708893,510.568085 294.008087,510.059387 
	C308.316833,504.456757 317.653992,494.137329 320.769806,479.275970 
	C322.436646,471.325806 321.724762,462.866882 321.965851,454.634003 
	C322.037689,452.180206 322.322723,450.912567 325.246765,449.713501 
	C340.351562,443.519409 352.199768,427.054535 352.094849,410.779175 
	C351.992249,394.866516 352.387512,378.936310 353.104156,363.038116 
	C353.536713,353.441803 354.523438,343.812836 356.100006,334.338165 
	C359.031433,316.721039 365.654419,300.358246 375.279846,285.356506 
	C381.117065,276.258972 387.828064,267.726532 393.996735,258.836304 
	C410.047424,235.704086 419.236023,209.826080 421.701385,182.026657 
	C423.177429,165.383133 422.881073,148.440628 419.048553,131.834702 
	C414.935455,114.012947 408.694122,97.147430 399.184265,81.424271 
	C390.528259,67.112846 380.742279,53.778671 367.649628,43.295845 
	C358.193237,35.724457 348.569061,28.182741 338.229706,21.935200 
	C321.727081,11.963462 303.666107,5.673886 284.470947,2.913791 
	C283.900696,2.831796 283.486816,1.662398 283.000000,0.999998 
	C359.579926,1.000000 436.159821,1.000000 513.000000,1.000000 
	C513.000000,53.020603 513.000000,105.041641 512.706726,157.819153 
	C507.647034,151.373413 500.642120,150.465942 492.711609,150.889542 
	C483.742310,151.368622 474.725708,150.898987 465.734406,151.078430 
	C463.745789,151.118134 461.603546,151.827835 459.830719,152.783234 
	C453.902618,155.977951 452.606201,161.316910 452.920746,167.664139 
	C453.291016,175.135239 458.703705,180.974777 466.054993,180.992722 
	C477.381805,181.020355 488.711090,181.120361 500.033630,180.898056 
	C502.287933,180.853790 504.675812,179.789062 506.714325,178.670425 
	C508.981201,177.426468 510.918945,175.582657 513.000000,174.000000 
M440.000031,235.814087 
	C440.001526,246.044891 442.784271,249.772903 452.685303,253.305679 
	C458.260010,255.294785 463.684479,257.710724 469.279388,259.635803 
	C474.118561,261.300873 479.080872,263.623260 484.027985,263.723755 
	C491.627991,263.878052 498.287567,257.311096 498.940735,250.285889 
	C499.672455,242.415543 496.729462,236.282623 487.829193,233.017334 
	C479.717346,230.041275 471.435883,227.462921 463.514709,224.047119 
	C452.231049,219.181305 442.526459,224.889420 440.000031,235.814087 
M440.273560,90.198273 
	C440.182373,91.351013 440.020111,92.503197 440.011078,93.656578 
	C439.925049,104.643211 448.726837,111.928055 459.404938,108.869751 
	C468.607788,106.233986 477.389374,102.158371 486.525909,99.249107 
	C492.543945,97.332840 496.954651,94.259399 498.548065,87.961548 
	C501.349274,76.889984 492.231995,66.387657 481.744873,69.186325 
	C470.048096,72.307823 458.610535,76.601753 447.404266,81.220398 
	C444.559845,82.392723 443.021423,86.733871 440.273560,90.198273 
z"/>
<path fill="#FFFFFF" opacity="1.000000" stroke="none" 
	d="
M282.531342,0.999998 
	C283.486816,1.662398 283.900696,2.831796 284.470947,2.913791 
	C303.666107,5.673886 321.727081,11.963462 338.229706,21.935200 
	C348.569061,28.182741 358.193237,35.724457 367.649628,43.295845 
	C380.742279,53.778671 390.528259,67.112846 399.184265,81.424271 
	C408.694122,97.147430 414.935455,114.012947 419.048553,131.834702 
	C422.881073,148.440628 423.177429,165.383133 421.701385,182.026657 
	C419.236023,209.826080 410.047424,235.704086 393.996735,258.836304 
	C387.828064,267.726532 381.117065,276.258972 375.279846,285.356506 
	C365.654419,300.358246 359.031433,316.721039 356.100006,334.338165 
	C354.523438,343.812836 353.536713,353.441803 353.104156,363.038116 
	C352.387512,378.936310 351.992249,394.866516 352.094849,410.779175 
	C352.199768,427.054535 340.351562,443.519409 325.246765,449.713501 
	C322.322723,450.912567 322.037689,452.180206 321.965851,454.634003 
	C321.724762,462.866882 322.436646,471.325806 320.769806,479.275970 
	C317.653992,494.137329 308.316833,504.456757 294.008087,510.059387 
	C292.708893,510.568085 291.609406,511.586792 290.708588,512.684326 
	C268.979095,513.000000 246.958206,513.000000 224.468658,513.000000 
	C223.519043,512.333801 223.171982,511.275391 222.537521,511.058777 
	C206.551712,505.601074 196.297958,494.651337 192.937775,478.219330 
	C191.437897,470.884613 192.132462,463.079926 192.054047,455.486237 
	C192.022903,452.469482 191.661804,450.884918 188.177155,449.425110 
	C173.294235,443.190247 161.415100,426.548370 161.919693,410.137146 
	C162.318878,397.154114 162.227554,384.144196 161.952103,371.154724 
	C161.397476,344.998688 157.436539,319.420837 144.824768,296.153809 
	C138.403107,284.306641 130.548447,273.150238 122.546600,262.266022 
	C110.849022,246.354797 103.047363,228.778320 97.430145,209.997574 
	C91.542915,190.314072 90.773735,170.091339 92.250694,149.974960 
	C93.878273,127.806999 100.609116,106.757881 111.381729,87.157135 
	C117.648460,75.754829 125.196808,65.328400 133.810974,55.519703 
	C149.524124,37.627628 168.463226,24.329943 189.977386,14.586718 
	C202.295547,9.008134 215.204544,5.098724 228.609375,2.964425 
	C229.646347,2.799320 230.604156,2.137140 231.299377,1.352998 
	C248.020889,1.000000 265.041779,1.000000 282.531342,0.999998 
M125.956711,194.660492 
	C128.260208,209.545288 134.328674,223.079575 142.287354,235.559677 
	C153.776871,253.576523 168.656937,269.534882 176.258820,289.883514 
	C181.125473,302.910522 185.141830,316.288727 188.856644,329.698608 
	C190.767288,336.595642 191.183609,343.906647 192.242691,350.818542 
	C235.784500,350.818542 278.736206,350.818542 321.637878,350.818542 
	C322.119965,348.767273 322.600189,346.907806 322.991425,345.029785 
	C325.585907,332.576019 327.343628,319.877991 330.918854,307.713623 
	C337.670593,284.741486 350.222473,264.739838 364.642853,245.757523 
	C388.156189,214.805649 395.652435,179.846283 388.967316,141.815384 
	C383.162262,108.791046 366.455841,82.121361 340.554352,61.043030 
	C320.241333,44.512520 296.812714,34.985214 271.019714,32.254013 
	C256.553528,30.722204 241.860229,31.317080 227.416306,34.921085 
	C187.063873,44.989712 157.111786,68.135185 137.556870,104.865662 
	C129.654755,119.708405 124.609695,135.550858 123.266174,152.121109 
	C122.140274,166.007263 122.014503,180.157593 125.956711,194.660492 
M312.326752,421.152710 
	C316.863708,419.396057 320.336700,416.016937 320.818512,411.442841 
	C321.866852,401.489990 321.958771,391.436401 322.452362,381.200745 
	C278.531372,381.200745 235.461700,381.200745 192.000137,381.200745 
	C192.000137,382.352356 192.000107,383.307495 192.000153,384.262665 
	C192.000412,391.428833 191.422745,398.652649 192.130188,405.748322 
	C193.329025,417.773041 198.004868,422.703857 209.597672,422.776428 
	C243.650360,422.989594 277.709503,422.173492 312.326752,421.152710 
M283.115753,480.991455 
	C294.463745,474.274384 291.496979,463.302246 291.996704,453.311340 
	C268.308899,453.311340 245.235672,453.311340 222.000000,453.311340 
	C222.000000,456.773529 221.700409,459.961578 222.075058,463.068298 
	C222.554504,467.043945 222.818985,471.326111 224.529343,474.812225 
	C227.735992,481.348083 234.263458,482.829529 240.915176,482.948761 
	C251.578278,483.139893 262.250183,483.137390 272.912048,482.915314 
	C276.060730,482.849731 279.188232,481.768951 283.115753,480.991455 
z"/>
<path fill="#FFFFFF" opacity="1.000000" stroke="none" 
	d="
M0.999999,158.466858 
	C3.081042,156.417343 5.018779,154.573547 7.285681,153.329575 
	C9.324168,152.210938 11.712062,151.146194 13.966331,151.101929 
	C25.288860,150.879654 36.618164,150.979630 47.944984,151.007278 
	C55.296322,151.025238 60.709000,156.864670 61.079224,164.335861 
	C61.393753,170.683060 60.097549,176.022156 54.169270,179.216782 
	C52.396397,180.172134 50.254181,180.881866 48.265568,180.921555 
	C39.274265,181.100998 30.257681,180.631393 21.288387,181.110474 
	C13.357869,181.534042 6.352931,180.626602 1.293259,173.712189 
	C1.000000,168.977905 1.000000,163.955811 0.999999,158.466858 
z"/>
<path fill="#FFFFFF" opacity="1.000000" stroke="none" 
	d="
M513.000000,173.533142 
	C510.918945,175.582657 508.981201,177.426468 506.714325,178.670425 
	C504.675812,179.789062 502.287933,180.853790 500.033630,180.898056 
	C488.711090,181.120361 477.381805,181.020355 466.054993,180.992722 
	C458.703705,180.974777 453.291016,175.135239 452.920746,167.664139 
	C452.606201,161.316910 453.902618,155.977951 459.830719,152.783234 
	C461.603546,151.827835 463.745789,151.118134 465.734406,151.078430 
	C474.725708,150.898987 483.742310,151.368622 492.711609,150.889542 
	C500.642120,150.465942 507.647034,151.373413 512.706726,158.287811 
	C513.000000,163.022095 513.000000,168.044189 513.000000,173.533142 
z"/>
<path fill="#FFFFFF" opacity="1.000000" stroke="none" 
	d="
M64.184479,79.659500 
	C72.311440,83.442421 76.310555,91.902016 73.410805,99.062866 
	C69.959435,107.585884 61.958931,112.194359 52.049953,108.561989 
	C43.489204,105.423843 35.010490,102.056519 26.410347,99.032738 
	C17.656000,95.954742 14.376813,89.759209 15.036220,81.952934 
	C15.625836,74.972862 21.568798,68.595230 29.325985,68.570152 
	C34.661873,68.552895 40.061081,71.099548 45.333252,72.805397 
	C51.579643,74.826485 57.719948,77.175446 64.184479,79.659500 
z"/>
<path fill="#FFFFFF" opacity="1.000000" stroke="none" 
	d="
M46.715408,258.708191 
	C41.622799,260.314575 36.858646,261.707031 32.070236,263.010376 
	C25.938765,264.679321 17.974892,259.758698 16.000317,253.875977 
	C13.321427,245.894867 15.549929,238.188797 22.483564,235.066483 
	C30.924232,231.265533 39.727020,228.258041 48.418144,225.028351 
	C53.013451,223.320679 57.390228,221.020065 62.770374,222.878983 
	C67.623405,224.555786 73.274605,229.772873 73.993851,234.600403 
	C75.023674,241.512451 72.364235,248.355316 66.738358,250.925232 
	C60.355370,253.841003 53.616978,255.978729 46.715408,258.708191 
z"/>
<path fill="#FFFFFF" opacity="1.000000" stroke="none" 
	d="
M440.000427,235.386444 
	C442.526459,224.889420 452.231049,219.181305 463.514709,224.047119 
	C471.435883,227.462921 479.717346,230.041275 487.829193,233.017334 
	C496.729462,236.282623 499.672455,242.415543 498.940735,250.285889 
	C498.287567,257.311096 491.627991,263.878052 484.027985,263.723755 
	C479.080872,263.623260 474.118561,261.300873 469.279388,259.635803 
	C463.684479,257.710724 458.260010,255.294785 452.685303,253.305679 
	C442.784271,249.772903 440.001526,246.044891 440.000427,235.386444 
z"/>
<path fill="#FFFFFF" opacity="1.000000" stroke="none" 
	d="
M440.578217,89.908623 
	C443.021423,86.733871 444.559845,82.392723 447.404266,81.220398 
	C458.610535,76.601753 470.048096,72.307823 481.744873,69.186325 
	C492.231995,66.387657 501.349274,76.889984 498.548065,87.961548 
	C496.954651,94.259399 492.543945,97.332840 486.525909,99.249107 
	C477.389374,102.158371 468.607788,106.233986 459.404938,108.869751 
	C448.726837,111.928055 439.925049,104.643211 440.011078,93.656578 
	C440.020111,92.503197 440.182373,91.351013 440.578217,89.908623 
z"/>
<path fill="#000000" opacity="1.000000" stroke="none" 
	d="
M125.700439,194.309052 
	C122.014503,180.157593 122.140274,166.007263 123.266174,152.121109 
	C124.609695,135.550858 129.654755,119.708405 137.556870,104.865662 
	C157.111786,68.135185 187.063873,44.989712 227.416306,34.921085 
	C241.860229,31.317080 256.553528,30.722204 271.019714,32.254013 
	C296.812714,34.985214 320.241333,44.512520 340.554352,61.043030 
	C366.455841,82.121361 383.162262,108.791046 388.967316,141.815384 
	C395.652435,179.846283 388.156189,214.805649 364.642853,245.757523 
	C350.222473,264.739838 337.670593,284.741486 330.918854,307.713623 
	C327.343628,319.877991 325.585907,332.576019 322.991425,345.029785 
	C322.600189,346.907806 322.119965,348.767273 321.637878,350.818542 
	C278.736206,350.818542 235.784500,350.818542 192.242691,350.818542 
	C191.183609,343.906647 190.767288,336.595642 188.856644,329.698608 
	C185.141830,316.288727 181.125473,302.910522 176.258820,289.883514 
	C168.656937,269.534882 153.776871,253.576523 142.287354,235.559677 
	C134.328674,223.079575 128.260208,209.545288 125.700439,194.309052 
M248.022781,81.020187 
	C231.582062,85.526024 219.057236,94.720108 214.127533,111.604012 
	C212.298035,117.869904 211.762619,124.886818 212.391464,131.391647 
	C213.012054,137.811234 219.803391,141.054138 228.827118,141.000000 
	C235.823959,140.958023 241.352036,135.724670 242.049515,128.774567 
	C242.319641,126.082771 242.707855,123.249657 243.801102,120.822731 
	C246.910736,113.919495 251.506241,111.186165 259.856140,111.997620 
	C263.943237,112.394814 270.206818,118.149887 270.988861,122.258301 
	C272.352051,129.419800 269.501862,135.236069 263.548553,138.935638 
	C253.303207,145.302414 245.232132,153.724152 243.132431,166.020111 
	C241.923660,173.098694 242.632965,180.483643 241.898209,187.671326 
	C241.350937,193.024902 246.605423,199.065109 251.616241,200.812042 
	C257.454193,202.847305 265.712585,199.978912 269.084229,196.043930 
	C272.903992,191.585907 271.927429,186.511292 271.974213,181.523453 
	C272.042511,174.240143 274.394104,168.296631 280.990021,164.452881 
	C283.351562,163.076736 285.727814,161.575836 287.704742,159.714813 
	C298.302032,149.739044 302.487793,137.493378 302.193939,122.879829 
	C301.872803,106.910118 289.394806,89.905327 274.574951,83.855362 
	C266.101257,80.396103 257.549805,81.253510 248.022781,81.020187 
M256.558777,261.000000 
	C263.422516,261.799530 268.564819,258.811035 270.912720,252.670609 
	C272.943054,247.360565 273.274384,241.757553 269.239136,236.468918 
	C265.595734,231.693863 261.088959,230.784805 255.636887,230.944580 
	C247.687775,231.177490 242.038620,236.506500 241.999985,244.263779 
	C241.945129,255.284439 246.526688,260.895691 256.558777,261.000000 
z"/>
<path fill="#000000" opacity="1.000000" stroke="none" 
	d="
M312.046448,421.456573 
	C277.709503,422.173492 243.650360,422.989594 209.597672,422.776428 
	C198.004868,422.703857 193.329025,417.773041 192.130188,405.748322 
	C191.422745,398.652649 192.000412,391.428833 192.000153,384.262665 
	C192.000107,383.307495 192.000137,382.352356 192.000137,381.200745 
	C235.461700,381.200745 278.531372,381.200745 322.452362,381.200745 
	C321.958771,391.436401 321.866852,401.489990 320.818512,411.442841 
	C320.336700,416.016937 316.863708,419.396057 312.046448,421.456573 
z"/>
<path fill="#000000" opacity="1.000000" stroke="none" 
	d="
M282.720581,481.072449 
	C279.188232,481.768951 276.060730,482.849731 272.912048,482.915314 
	C262.250183,483.137390 251.578278,483.139893 240.915176,482.948761 
	C234.263458,482.829529 227.735992,481.348083 224.529343,474.812225 
	C222.818985,471.326111 222.554504,467.043945 222.075058,463.068298 
	C221.700409,459.961578 222.000000,456.773529 222.000000,453.311340 
	C245.235672,453.311340 268.308899,453.311340 291.996704,453.311340 
	C291.496979,463.302246 294.463745,474.274384 282.720581,481.072449 
z"/>
<path fill="#FFFFFF" opacity="1.000000" stroke="none" 
	d="
M248.479156,81.010742 
	C257.549805,81.253510 266.101257,80.396103 274.574951,83.855362 
	C289.394806,89.905327 301.872803,106.910118 302.193939,122.879829 
	C302.487793,137.493378 298.302032,149.739044 287.704742,159.714813 
	C285.727814,161.575836 283.351562,163.076736 280.990021,164.452881 
	C274.394104,168.296631 272.042511,174.240143 271.974213,181.523453 
	C271.927429,186.511292 272.903992,191.585907 269.084229,196.043930 
	C265.712585,199.978912 257.454193,202.847305 251.616241,200.812042 
	C246.605423,199.065109 241.350937,193.024902 241.898209,187.671326 
	C242.632965,180.483643 241.923660,173.098694 243.132431,166.020111 
	C245.232132,153.724152 253.303207,145.302414 263.548553,138.935638 
	C269.501862,135.236069 272.352051,129.419800 270.988861,122.258301 
	C270.206818,118.149887 263.943237,112.394814 259.856140,111.997620 
	C251.506241,111.186165 246.910736,113.919495 243.801102,120.822731 
	C242.707855,123.249657 242.319641,126.082771 242.049515,128.774567 
	C241.352036,135.724670 235.823959,140.958023 228.827118,141.000000 
	C219.803391,141.054138 213.012054,137.811234 212.391464,131.391647 
	C211.762619,124.886818 212.298035,117.869904 214.127533,111.604012 
	C219.057236,94.720108 231.582062,85.526024 248.479156,81.010742 
z"/>
<path fill="#FFFFFF" opacity="1.000000" stroke="none" 
	d="
M256.111908,261.000000 
	C246.526688,260.895691 241.945129,255.284439 241.999985,244.263779 
	C242.038620,236.506500 247.687775,231.177490 255.636887,230.944580 
	C261.088959,230.784805 265.595734,231.693863 269.239136,236.468918 
	C273.274384,241.757553 272.943054,247.360565 270.912720,252.670609 
	C268.564819,258.811035 263.422516,261.799530 256.111908,261.000000 
z"/>
</svg>